<svg xmlns="http://www.w3.org/2000/svg" xmlns:svg="http://www.w3.org/2000/svg" xmlns:xlink="http://www.w3.org/1999/xlink" id="svg2424" width="1024" height="500" version="1.0"><metadata id="metadata34"/><defs id="defs2426"><linearGradient id="path1082_2_" x1="112.499" x2="112.499" y1="6.137" y2="129.347" gradientTransform="translate(287,-83)" gradientUnits="userSpaceOnUse"><stop id="stop193" offset="0" stop-color="#fff" stop-opacity="0"/><stop id="stop195" offset="1" stop-color="#fff" stop-opacity=".275"/><midPointStop id="midPointStop197" offset="0" stop-color="#FFF"/><midPointStop id="midPointStop199" offset=".5" stop-color="#FFF"/><midPointStop id="midPointStop201" offset="1" stop-color="#000"/></linearGradient><linearGradient id="linearGradient2544" x1="541.335" x2="606.912" y1="104.507" y2="303.14" gradientTransform="matrix(-0.3937741,0,0,0.393752,357.51969,122.00151)" gradientUnits="userSpaceOnUse" xlink:href="#path1082_2_"/><linearGradient id="linearGradient3388"><stop id="stop3390" offset="0" stop-color="#000" stop-opacity="0"/><stop id="stop3392" offset="1" stop-color="#000" stop-opacity=".371"/></linearGradient><linearGradient id="linearGradient4416" x1="490.723" x2="490.723" y1="237.724" y2="183.964" gradientTransform="matrix(0.749107,0,0,0.749107,-35.459862,91.44108)" gradientUnits="userSpaceOnUse" xlink:href="#linearGradient3388"/></defs><rect id="rect4643" width="1024.107" height="499.96" x=".004" y=".004" fill="#4d4d4d" fill-opacity="1" stroke-width="1.132"/><g id="g4809" transform="matrix(0.96761132,0,0,0.96761132,16.582996,-15.90284)"><path id="path2284" fill="#fff" fill-opacity="1" fill-rule="evenodd" stroke="none" stroke-width="1.008" d="m 324.60268,184.8483 c -14.59026,-0.024 -26.69869,2.96785 -31.38063,4.59997 l -4.82052,26.02449 c -0.0101,0.096 23.99086,-6.40069 34.56281,-6.01776 17.50417,0.62892 19.11518,6.68989 18.80947,14.87113 0.29837,0.47851 -4.51612,-7.39214 -19.66016,-7.65611 -19.10523,-0.32955 -46.06811,6.76456 -46.0312,35.6025 -0.51506,32.43836 24.23098,41.98079 41.08467,42.1559 15.15162,-0.2759 22.259,-5.73811 26.15051,-8.66432 5.11288,-5.34592 10.96238,-10.72182 16.54099,-17.17113 -5.27868,9.5909 -9.855,16.22194 -14.61909,21.29848 v 4.28491 l 23.03135,-3.87531 0.1576,-62.60371 c -0.23331,-8.86057 5.08263,-42.76663 -43.82574,-42.84904 z m -3.3082,54.50651 c 9.54664,0.13098 20.49483,4.83648 20.51083,16.16289 0.0493,10.30214 -12.90517,15.84087 -21.33,15.75332 -8.42842,-0.0875 -19.61068,-6.62377 -19.66016,-16.66701 0.16139,-8.97756 10.54544,-15.48027 20.47933,-15.2492 z"/><path id="path2286" fill="#fff" fill-opacity="1" fill-rule="evenodd" stroke="none" stroke-width="1.008" d="m 383.6157,190.63312 -0.15633,103.67143 26.83068,-5.16937 0.0451,-58.78037 c 0.006,-8.75219 12.50743,-18.97911 28.19235,-18.81614 3.32915,-6.02314 9.58681,-21.41665 11.1114,-24.91813 -35.04193,-0.084 -35.48805,10.072 -41.5827,15.06791 -0.0636,-9.53046 -0.0215,-15.25164 -0.0215,-15.25164 l -24.41912,4.19631 z"/><path id="path2288" fill="#fff" fill-opacity="1" fill-rule="evenodd" stroke="none" stroke-width="1.008" d="m 534.61344,204.24311 c -0.25908,-0.12158 -13.99336,-16.06504 -41.60529,-16.19078 -25.86315,-0.42988 -54.87277,9.59713 -55.33708,52.96424 0.22642,38.12911 27.86722,53.03005 55.48337,53.32061 29.55365,0.30701 41.31307,-18.48001 42.01841,-18.94557 -3.52634,-3.05701 -16.73422,-16.14462 -16.73422,-16.14462 0,0 -8.24956,11.74671 -24.25559,11.89604 -16.00984,0.15252 -29.92625,-12.37405 -30.12344,-29.85222 -0.20516,-17.47832 12.793,-26.94771 30.2436,-27.71261 15.10774,-0.003 23.82376,9.75278 23.82376,9.75278 z"/><path id="path2290" fill="#fff" fill-opacity="1" fill-rule="evenodd" stroke="none" stroke-width="1.008" d="m 568.43262,154.34986 -25.33134,5.95478 0.18905,135.03747 24.95326,-4.50545 0.28356,-63.5489 c 0.0534,-6.66354 9.63979,-16.8968 25.64641,-16.57249 15.3044,0.15903 18.7249,10.20075 18.68343,11.46841 l 0.44111,73.56801 24.60669,-4.34792 0.0945,-78.01045 c 0.1621,-7.50652 -16.44226,-23.35982 -43.13259,-23.47245 -12.6842,0.0204 -19.70872,2.89181 -23.28342,5.00956 -6.11638,4.72413 -13.10656,9.25079 -19.97522,15.02867 6.34982,-8.15745 11.68066,-13.79756 16.88757,-17.9903 l -0.063,-37.61894 z"/><path id="path2292" fill="#1793d1" fill-opacity="1" fill-rule="evenodd" stroke="none" stroke-width="1.493" d="m 659.37276,157.85392 11.42549,-2.85953 0.54061,136.14053 -11.60826,1.97665 z"/><path id="path2294" fill="#1793d1" fill-opacity="1" fill-rule="evenodd" stroke="none" stroke-width="1.493" d="m 690.43767,198.48577 10.01319,-4.45807 0.0857,97.61759 -9.67057,1.99886 z m -2.37974,-35.20116 8.07395,-6.59048 6.70698,7.46247 -8.07735,6.76497 z"/><path id="path2296" fill="#1793d1" fill-opacity="1" fill-rule="evenodd" stroke="none" stroke-width="1.493" d="m 719.28024,196.70739 11.42683,-2.33152 0.0541,20.40768 c 10e-4,0.87642 6.27394,-22.79804 36.53067,-22.27159 29.37725,0.16355 34.18319,22.90656 34.02413,28.00545 l 0.36235,71.76356 -10.01535,2.17374 -0.058,-70.88395 c 0.11609,-2.07005 -4.57796,-19.57508 -25.33794,-19.63946 -20.75613,-0.0604 -35.13778,15.07638 -35.11222,24.74703 l 0.16535,62.4442 -11.60547,3.03201 z"/><path id="path2298" fill="#1793d1" fill-opacity="1" fill-rule="evenodd" stroke="none" stroke-width="1.493" d="m 901.38416,292.79738 -11.42691,2.33128 -0.0538,-20.40731 c -10e-4,-0.87682 -6.27784,22.79797 -36.53069,22.27144 -29.37721,-0.16338 -34.18316,-22.90642 -34.02411,-28.00533 l -0.36241,-71.76401 12.1404,-2.45131 0.18746,70.88526 c 0.006,1.93568 2.32352,19.85179 23.08345,19.91569 20.75618,0.0606 35.29752,-12.49876 35.40052,-31.41134 l -0.14799,-55.92773 11.29995,-2.8837 z"/><path id="path2300" fill="#1793d1" fill-opacity="1" fill-rule="evenodd" stroke="none" stroke-width="1.493" d="m 923.77819,195.90233 -8.01206,6.26933 30.71864,40.20167 -32.76431,46.4453 8.50026,6.30789 30.80021,-43.13236 31.78802,44.15466 7.86296,-6.27063 -34.06706,-47.21018 27.1775,-38.17799 -8.35718,-7.06657 -24.75717,35.32746 z"/><path id="path2518" fill="#1793d1" fill-opacity="1" fill-rule="evenodd" stroke="none" stroke-width="1.807" d="m 151.62052,92.099989 c -13.36745,32.773441 -21.43005,54.211111 -36.31296,86.010321 9.1251,9.67259 20.32571,20.93679 38.51546,33.65867 -19.55576,-8.04709 -32.8952,-16.12616 -42.86398,-24.50984 C 91.911766,227.00421 62.070155,283.61932 1.5119161,392.43018 49.108653,364.95174 86.004811,348.011 120.39026,341.54685 c -1.47653,-6.35051 -2.31599,-13.21982 -2.25897,-20.38722 l 0.0565,-1.52479 c 0.75526,-30.49398 16.61819,-53.94386 35.40937,-52.35166 18.79119,1.59221 33.39736,27.61804 32.64214,58.11203 -0.14212,5.738 -0.78928,11.2579 -1.92013,16.37754 34.01211,6.65337 70.51374,23.55074 117.46649,50.65743 -9.25818,-17.04494 -17.52189,-32.40969 -25.41344,-47.04308 -12.43046,-9.63443 -25.39605,-22.1737 -51.84337,-35.74821 18.17837,4.7235 31.19386,10.17318 41.33917,16.26459 C 185.63243,176.51892 179.13508,156.66881 151.62052,92.099989 Z"/><path id="path3945" fill="#1793d1" fill-opacity="1" stroke="none" stroke-width="1.581" d="m 1007.634,286.80903 v -8.42384 h -3.1467 v -1.12709 h 7.5704 v 1.12709 h -3.1598 v 8.42384 h -1.2639" font-family="DejaVu Sans Mono" font-size="medium" font-style="normal" font-weight="normal"/><path id="path3947" fill="#1793d1" fill-opacity="1" stroke="none" stroke-width="1.581" d="m 1013.3737,286.80903 v -9.55093 h 1.9023 l 2.2607,6.76252 c 0.2085,0.62979 0.3605,1.10104 0.4561,1.41375 0.1086,-0.34746 0.2779,-0.85781 0.5081,-1.53101 l 2.2868,-6.64526 h 1.7004 v 9.55093 h -1.2183 v -7.99386 l -2.7754,7.99386 h -1.1401 l -2.7623,-8.13065 v 8.13065 h -1.2183" font-family="DejaVu Sans Mono" font-size="medium" font-style="normal" font-weight="normal"/><path id="path3940" fill="#1793d1" fill-opacity="1" stroke="none" stroke-width="1.581" d="m 303.26753,365.62417 v -8.23416 h -3.07584 v -1.10169 h 7.3999 v 1.10169 h -3.08862 v 8.23416 h -1.23544" font-family="DejaVu Sans Mono" font-size="medium" font-style="normal" font-weight="normal"/><path id="path3942" fill="#1793d1" fill-opacity="1" stroke="none" stroke-width="1.581" d="m 308.87797,365.62417 v -9.33585 h 1.85954 l 2.20978,6.61024 c 0.20376,0.61559 0.35237,1.07624 0.44576,1.38192 0.10612,-0.33965 0.27171,-0.8385 0.49672,-1.49656 l 2.23529,-6.4956 h 1.66209 v 9.33585 h -1.19086 v -7.81385 l -2.71288,7.81385 h -1.11443 l -2.70013,-7.94758 v 7.94758 h -1.19088" font-family="DejaVu Sans Mono" font-size="medium" font-style="normal" font-weight="normal"/><text id="text4579" x="332.018" y="406.371" fill="#fff" fill-opacity="1" stroke="none" stroke-width="2.197" font-family="sans-serif" font-size="107.947" font-stretch="normal" font-style="normal" font-variant="normal" font-weight="normal" letter-spacing="0" text-anchor="start" word-spacing="0" writing-mode="lr-tb" xml:space="preserve" style="line-height:1.25;-inkscape-font-specification:'sans-serif, Normal';font-variant-ligatures:normal;font-variant-caps:normal;font-variant-numeric:normal;font-feature-settings:normal;text-align:start"><tspan id="tspan4577" x="332.018" y="406.371" fill="#fff" fill-opacity="1" stroke-width="2.197" font-family="sans-serif" font-size="107.947" font-stretch="normal" font-style="normal" font-variant="normal" font-weight="normal" text-anchor="start" writing-mode="lr-tb" style="-inkscape-font-specification:'sans-serif, Normal';font-variant-ligatures:normal;font-variant-caps:normal;font-variant-numeric:normal;font-feature-settings:normal;text-align:start">Mobile wiki</tspan></text></g><rect id="rect4775" width="1024.133" height="39.32" x="-.066" y="460.695" fill="#08c" fill-opacity="1" stroke-width="7.074"/></svg>