<svg xmlns="http://www.w3.org/2000/svg" xmlns:svg="http://www.w3.org/2000/svg" xmlns:xlink="http://www.w3.org/1999/xlink" id="svg2424" width="512" height="512" version="1.0"><metadata id="metadata34"/><defs id="defs2426"><linearGradient id="path1082_2_" x1="112.499" x2="112.499" y1="6.137" y2="129.347" gradientTransform="translate(287,-83)" gradientUnits="userSpaceOnUse"><stop id="stop193" offset="0" stop-color="#fff" stop-opacity="0"/><stop id="stop195" offset="1" stop-color="#fff" stop-opacity=".275"/><midPointStop id="midPointStop197" offset="0" stop-color="#FFF"/><midPointStop id="midPointStop199" offset=".5" stop-color="#FFF"/><midPointStop id="midPointStop201" offset="1" stop-color="#000"/></linearGradient><linearGradient id="linearGradient2544" x1="541.335" x2="606.912" y1="104.507" y2="303.14" gradientTransform="matrix(-0.3937741,0,0,0.393752,357.51969,122.00151)" gradientUnits="userSpaceOnUse" xlink:href="#path1082_2_"/><linearGradient id="linearGradient3388"><stop id="stop3390" offset="0" stop-color="#000" stop-opacity="0"/><stop id="stop3392" offset="1" stop-color="#000" stop-opacity=".371"/></linearGradient><linearGradient id="linearGradient4416" x1="490.723" x2="490.723" y1="237.724" y2="183.964" gradientTransform="matrix(0.749107,0,0,0.749107,-35.459862,91.44108)" gradientUnits="userSpaceOnUse" xlink:href="#linearGradient3388"/></defs><g id="text2634" fill="#fff" fill-opacity="1" stroke="none" font-family="DejaVu Sans Mono" font-size="8.441" font-style="normal" font-weight="normal" transform="matrix(0.8746356,0,0,0.8746356,-20.046795,206.18962)"><path id="path3660" fill="#fff" fill-opacity="1" d="m 685.46692,263.83624 v -5.32944 h -1.99082 v -0.71307 h 4.7895 v 0.71307 h -1.99906 v 5.32944 h -0.79962"/><path id="path3662" fill="#fff" fill-opacity="1" d="m 689.0982,263.83624 v -6.04251 h 1.20355 l 1.43026,4.2784 c 0.13189,0.39843 0.22806,0.69658 0.28852,0.89442 0.0687,-0.21983 0.17586,-0.5427 0.3215,-0.96862 l 1.44674,-4.2042 h 1.07578 v 6.04251 h -0.77077 v -5.05741 l -1.75587,5.05741 h -0.72131 l -1.74763,-5.14396 v 5.14396 h -0.77077"/></g><g id="text2638" fill="#fff" fill-opacity="1" stroke="none" font-family="DejaVu Sans Mono" font-size="8.251" font-style="normal" font-weight="normal" transform="matrix(0.8746356,0,0,0.8746356,-20.046795,206.18962)"><path id="path2883" fill="#fff" fill-opacity="1" d="m 239.84053,313.69965 v -5.20945 h -1.94598 v -0.697 h 4.68164 v 0.697 h -1.95404 v 5.20945 h -0.78162"/><path id="path2885" fill="#fff" fill-opacity="1" d="m 243.39004,313.69965 v -5.90645 h 1.17646 l 1.39805,4.18205 c 0.12892,0.38947 0.22293,0.6809 0.28202,0.87429 0.0671,-0.21488 0.1719,-0.53048 0.31426,-0.94681 l 1.41417,-4.10953 h 1.05155 v 5.90645 h -0.75341 v -4.94353 l -1.71634,4.94353 h -0.70506 l -1.70828,-5.02814 v 5.02814 h -0.75342"/></g><circle id="path826" cx="256" cy="256" r="255.939" fill="#1793d1" fill-opacity="1" stroke-width="1.012"/><path id="path2518" fill="#fff" fill-opacity="1" fill-rule="evenodd" stroke="none" stroke-width="2.347" d="m 255.96343,18.230363 c -17.35768,42.556357 -27.82696,70.39323 -47.15247,111.684557 11.84894,12.55988 26.39297,27.1865 50.0124,43.70588 -25.39323,-10.44917 -42.71451,-20.93986 -55.65897,-31.8261 -24.73292,51.60909 -63.48233,125.12391 -142.117318,266.41502 61.804478,-35.68079 109.714208,-57.67839 154.363748,-66.07209 -1.91722,-8.24614 -3.0073,-17.16597 -2.93326,-26.47284 l 0.0732,-1.97996 c 0.98071,-39.59649 21.57873,-70.04619 45.97913,-67.97872 24.4004,2.06747 43.36656,35.86208 42.38586,75.45858 -0.18442,7.45079 -1.02486,14.61841 -2.49327,21.26626 44.16479,8.63943 91.56222,30.5807 152.53045,65.77877 -12.02173,-22.13289 -22.75217,-42.08404 -32.99936,-61.08552 -16.141,-12.51033 -32.97683,-28.79259 -67.31871,-46.41912 23.60466,6.13347 40.50528,13.20989 53.67896,21.11961 C 300.12784,127.84853 291.69102,102.07309 255.96329,18.230363 Z"/></svg>